<svg width="116" height="129" viewBox="0 0 116 128" xmlns="http://www.w3.org/2000/svg">
  <path fill="#fff" d="M96.34 59.78c-1.23-4.52-2-14.23-2.05-14.82-.27-3.74-4.23-18.05-7.32-16.21-6.18-3.52-13.68-3.37-20.63-2.8-14.43 1.2-29.3 5.66-38.87 16.86-4.7 5.78-8.92 13.78-7.34 21.23-3.88 7.86-9.38 18.67-1.94 26.07 2.5 2.34 6 2.83 8.93 4.44 5.96 3.46 10.21 9.06 16.2 12.47 16.12 10.53 40.61 9.57 52.35-6.92 9.2-12.05 5.08-27.39 1.16-40.4-2.63-8.75 1.9 8.89-.49.08Zm0 0"/>
  <path fill-rule="evenodd" d="M55.77 6.47a51.04 51.04 0 0 0-11.48 2.85 85.97 85.97 0 0 0-21.06 10.9 39.49 39.49 0 0 0-7.11 6.65c-2.33-.7-5.76-.28-6.1 2.19-.1.71.1 1.3.46 1.8-.47.38-.9.82-1.25 1.32l-.23.3c-.71.97-.56 2.55.5 3.24l.14.1.09.05c.18.11.36.2.55.26a42.13 42.13 0 0 0-3.86 17.42 39 39 0 0 0 1.3 10.43 22.36 22.36 0 0 0 1.86 4.96c.41.74.94 1.44 1.42 2.14.53.76 1.28 1.26 1.93 1.92.07.06.17.09.26.08-.1.35-.21.71-.3 1.08-.5 2.06-.8 4.24-.84 6.37-.08 4 1 8.32 4.43 10.8a9.16 9.16 0 0 0 5.21 1.6c-.5.71-.87 1.5-1.1 2.33-.47 1.62 1 3.5 2.78 2.65.33-.16.67-.35.98-.55.7.97 1.95 1.52 3.14 1.15.7-.22 1.17-.57 1.46-1 1.17 1.8 2.64 3.4 4.35 4.72 1.82 1.41 3.78 2.64 5.6 4.05 1.76 1.38 2.98 3.34 4.98 4.4.62.32 1.4-.25 1.47-.88.25-2.45-1.69-4.18-3.5-5.57l-.21-.18c-1.93-1.47-4.08-2.61-6.1-3.95a26.92 26.92 0 0 1-5.5-4.83l-.43-.5-.65-.76-.15-.35c-.1-.49-.35-.93-.7-1.28a3.05 3.05 0 0 0-1.64-.87 9.57 9.57 0 0 0-.7-.49c.23-.32.4-.7.54-1.11.25-.78-.35-1.87-1.3-1.63-.29.07-.57.11-.87.13-.3.04-.62.07-.94.16l-.22.06c-.51.15-1.02.3-1.56.3a4.57 4.57 0 0 1-3-1.14c-2.08-1.77-2.7-4.68-2.73-7.29 0-1.16.09-2.32.23-3.47l.2-1.77c.12-1 .28-2.03.78-2.9 1.56-2.72 5.15-1.3 7.36-.14l.2.11.05.01c.13.16.27.3.41.45.78.77 1.69 1.42 2.6 2.03l.2.13.37.25c1.08.68 2.27-.12 2.21-1.33-.1-2.27-.51-4.52-.71-6.79a65.37 65.37 0 0 1 .77-16.99c.15-.87.15-2.23.78-2.9.57-.63 1.78-.9 2.54-1.19 1.08-.4 2.17-.77 3.25-1.18a99.76 99.76 0 0 0 5.98-2.43 53.63 53.63 0 0 0 5.68-2.95 501.2 501.2 0 0 0-1.23 3.06c-.56 1.4.63 2.63 2.02 2.53 1.42-.09 2.83-.4 4.15-.94a7 7 0 0 0 .77-.37c1.49-.33 2.97-.9 4.33-1.46l.64-.26a53.04 53.04 0 0 0 7.4-3.85l.8-.5c1.01-.47 2-1 2.95-1.57 3.87 0 7.69-.8 11.26-2.26a35.28 35.28 0 0 0 4.77-2.31 9.8 9.8 0 0 0 4.01 2.82c.34 1.2.61 2.4.86 3.61.77 3.85 1.56 7.7 2.36 11.53l.26 1.24A505.35 505.35 0 0 1 98.1 73.2c1.1 6.86 1.7 13.7-1.13 20.23a25.86 25.86 0 0 1-12.14 12.91c-3.36 1.62-7 2.55-10.73 2.74-1.82.1-3.65-.04-5.44-.33l-.26-.04c-1.8-.27-3.47-.28-5.3-.23-1.2.04-1.26 1.6-.55 2.23a10.15 10.15 0 0 0 4.96 2.54c1.78.36 3.63.48 5.45.47a30.5 30.5 0 0 0 10.94-2A29.78 29.78 0 0 0 99.04 98.2c3.64-6.66 4.02-14.04 3-21.42-1.1-7.9-2.7-15.76-4.42-23.55l-.36-1.6c-.75-3.38-1.52-6.76-2.43-10.1.65-.03 1.3-.33 1.77-.96.9-1.22.9-2.9.81-4.39l-.03-.4c-.1-1.38-.52-2.74-1.1-4a10.81 10.81 0 0 0-3.3-4.15c1.38-2 1.88-4.61 1.72-6.98-.11-1.7-.32-3.94-2.31-4.45-.39-.1-.79-.1-1.18-.03.01-.62-.01-1.24-.07-1.85-.09-1-1.26-1.91-2.26-1.66l-.9.23c.13-.32.27-.64.42-.95.61-1.33-.67-2.52-1.94-2.43-3.39.23-6.8.04-10.15-.51-3.36-.55-6.86-1.1-10.13-2.08a.53.53 0 0 0-.57.2c-2.82-1.3-6.58-1-9.54-.68l-.3.03ZM22.24 77.12c-1.21-.36-2.86-.83-3.98-.28a.8.8 0 0 0-.28 1.23h-.02l.06.08c.28.3.6.5.95.66l.16.08c-.36.35-.6.82-.65 1.32-.08.86.41 1.81 1.26 2.1.34.12.69.16 1.05.12a2 2 0 0 0 1.22-.68l.1-.11c.15-.16.26-.35.34-.56 1.09 1.04 2.07 2.3 3.68 2.1.78-.09 1.55-.83 1.6-1.63v-.23c.05-.75-.19-1.58-.87-2.01a16.97 16.97 0 0 0-4.32-2.1Zm0 0"/>
  <path fill-rule="evenodd" d="M91.64 57.16a.48.48 0 0 0 .18-.2 5.01 5.01 0 0 0-.11-3.8 9.49 9.49 0 0 0-2.85-3.75 12.68 12.68 0 0 0-4.77-2.21l-.39-.1c-1.77-.46-3.94-.99-5.46.1a2.1 2.1 0 0 0-.9 1.7c0 .68.3 1.37.84 1.86.9.82 2.1.84 3.28.83a16.4 16.4 0 0 1 4.86.68c2.42.8 3.74 2.4 4.64 4.67.03.08.1.16.17.21.16.1.36.1.51.01Zm-29.75-3.1c-.7.92-1.64 1.19-2.6 1.44a12.61 12.61 0 0 0-4.55 2.15c-1.01.76-2.1 1.65-2.83 2.7l-.49.77-.44.68c-.17.25-.33.52-.48.78-.1.21-.11.27-.13.32-.07.24-.16.47-.26.7-.1.24-.16.31-.22.35a.6.6 0 0 1-.29.1.5.5 0 0 1-.28-.09c-.47-.28-.68-.84-.76-1.45-.12-.93.06-2.01.29-2.69.51-1.57 1.3-3.25 2.37-4.53a14.73 14.73 0 0 1 4.27-3.55 9.76 9.76 0 0 1 3.45-1.26c.86-.1 1.72.03 2.5.56.46.34.76.84.84 1.4.08.57-.03 1.17-.39 1.63Zm28.2 10.48c.46.07.77-.04 1.14-.32.28-.2.47-.48.54-.81a1.7 1.7 0 0 0-.06-1 5.4 5.4 0 0 0-2.69-3 4.88 4.88 0 0 0-3.9-.24 6.07 6.07 0 0 0-2.89 2.77 2.95 2.95 0 0 0-.32 1.6c.05.5.25.97 1 1.52a.7.7 0 0 0 .62-.23c.25-.3.4-.65.57-1.03a3.06 3.06 0 0 1 1.84-1.87 2.03 2.03 0 0 1 1.65.18c.57.31 1.02.87 1.25 1.5.1.25.27.46.5.62.21.16.47.27.74.3Zm-29.34 2.1a2.1 2.1 0 0 0-2.1.16 6.73 6.73 0 0 0-2.03 2.74c-.39.9-.6 1.92-.37 2.9.05.2 0 .41-.13.57a.8.8 0 0 1-.41.26 1.3 1.3 0 0 1-.48.03.72.72 0 0 1-.52-.33 5.83 5.83 0 0 1-.37-4.3c.5-1.97 1.69-3.74 2.54-4.38a5.34 5.34 0 0 1 5.07-.78c1.46.54 2.5 1.61 3.53 2.7l.66.7c.45.45.56.95.48 1.4-.1.53-.44.98-.9 1.25-.44.28-.98.37-1.49.25a1.9 1.9 0 0 1-1.17-.91 5.7 5.7 0 0 0-2.31-2.25Zm21.7 8.4c1.57-3.06-1.65-5.24-3.66-6.08-.54-.27-.33-1.47.73-1.45 9.64.2 7.22 17-6.12 9.98-1.6-.93-.26-3.71 1.43-2.96l.28.15c1.93 1.07 5.46 3.02 7.34.36Zm-.07 17.2a10.11 10.11 0 0 1-5.57.86 10.1 10.1 0 0 1-5.06-2.28 6.72 6.72 0 0 1-2.44-4.14.72.72 0 0 1 .1-.5c.2-.3.57-.44.91-.35.15.05.29.13.38.28l.68.64c1.8 1.63 3.48 2.8 5.83 2.95 1.24.08 2.48-.2 3.57-.8a7.76 7.76 0 0 0 2.83-2.69c.26-.44.7-.74 1.2-.83.53-.06 1.06.08 1.48.4.43.31.75.78.85 1.3.1.5-.02 1.03-.32 1.44a10.94 10.94 0 0 1-4.44 3.72Zm0 0"/>
  <path fill-rule="evenodd" d="M96.62 84.86c.78.96 1.47 2 2.06 3.1.28.52 2.64 6.18 2.23 9.7a27.4 27.4 0 0 1-3.17 9.7 16.84 16.84 0 0 1-6.3 6.77c-3.6 2.06-8.22 2.32-12.26 2.54a66.45 66.45 0 0 1-15.1-.98c-2.48-.45-4.95-1-7.38-1.65-2.4-.63-4.94-1.23-7.24-2.17-1.98-.81-3.79-2.28-5.5-3.54a78.1 78.1 0 0 1-7.75-6.36c-2.25-2.15-4-4.2-4.94-7.2-1.47-4.66-1.55-9.78-1.62-14.66l-.02-1.18c0-.17.24-.3.32-.14l-.06-.26c-.07-.39.48-.52.64-.19a29.08 29.08 0 0 0 8.13 10.36c4.83 3.84 10.62 6.15 16.27 8.6.14-.19.33-.33.55-.41.24-3.44 2.23-6.91 4.36-9.39 6.2-7.23 17.23-11.6 26.64-9.17 4 1.05 7.55 3.33 10.14 6.53ZM70.66 86.3c-4.79 1.98-8.6 6.02-9.88 10.93 0 1.02.17 2.04.54 3.02a21.69 21.69 0 0 0 15.2 1.7c1.32-2.23 2.6-5.9 5.25-6.7 1.97-.6 3.6.51 5.23 1.62.84.57 1.68 1.14 2.57 1.48l.47.16a9.2 9.2 0 0 0 4.2-2.03c1.2-1.1 1.52-2.39 1.54-3.86a17.91 17.91 0 0 0-3.63-5.78 8.75 8.75 0 0 0-4.3-2.57c-1.94-.44-4.06-.28-6.05-.18-3.78.2-7.62.75-11.14 2.2Zm0 0"/>
  <path fill-rule="evenodd" d="M103.14 53.53c.6-.66 1.75-.97 2.57-1.1 1.92.08 1.57 3.01-2.24 1.8 8.7 21.33-25.29 27.4-22.73 5.48-3.58-.3-7.22.18-10.15 2.22 4.2 9.23-3.47 19.87-14.28 19.06-6.98-.54-12.27-5.06-11.35-13-1.26.6-3.79.64-4.71-.28-2.7.18-5.38.25-8.06.33-6.02.17-12.02.33-17.98 1.6-.8.24-.66.8-.53 1.37.14.56.27 1.13-.52 1.36-1.89.11-1.63-3.11-.38-3.82 1.67-1.6 17.92-2.7 27.46-1.69 1.1-.97 2.97-1 4.44-1.03l.68-.02c1.12-4.77 6.07-11.25 12.02-11.17 5.38-.5 10.17.93 12.9 6.62 2.4-2.92 7.3-4.48 10.8-3.07a14.95 14.95 0 0 1 7.84-9.66c4.78-4.57 11.7-.33 14.22 5Zm-2.23 13.63c-2.5 3.5-7.33 5.11-11.53 4.07-10.8-2.69-7.83-16.57-.54-21.27.95-.4 2.16-1.16 3.34-1.47.03-.03.1-.03.17-.03.12 0 .28 0 .45-.1 8.77-.35 12.76 12.66 8.11 18.8ZM54.27 78.74c5.37 1.28 11.36-1 14.02-5.9 5-9.02-3.07-21.85-16.7-14.29-6.14 5.6-7.92 17.78 2.68 20.2Zm-9.14-12.36-.02-.01.14-.1-.03.15a.59.59 0 0 0-.09-.05Zm0 0"/>
</svg>