<svg width="404" height="379" viewBox="0 0 404 379" fill="none" xmlns="http://www.w3.org/2000/svg">
<path fill-rule="evenodd" clip-rule="evenodd" d="M131.642 149.127C136.991 128.04 162.346 124.374 180.84 125.698C186.654 127.23 187.046 130.965 187.522 135.505C187.686 137.065 187.859 138.721 188.267 140.415C189.859 147.036 195.023 154.239 205.054 160.294C204.754 159.596 214.261 160.75 214.6 165.272C230.6 171.546 248.22 171.841 263.833 179.358C279.103 187.187 292.196 198.581 306.284 208.275L360.881 247.786C362.191 248.734 362.852 250.237 362.803 251.667C375.867 261.263 386.295 274.042 395.508 287.292L396.094 288.138C397.812 289.525 399.6 292.441 398.921 294.475C398.548 301.241 393.459 306.596 389.624 311.836L389.368 312.189C377.047 328.926 363.521 344.769 348.99 359.621C341.713 366.446 335.299 375.869 324.655 377.027C313.726 377.884 302.674 376.463 291.829 374.883L288.469 374.39C285.65 373.919 284.852 369.87 286.8 368.059C309.678 346.833 330.302 323.06 347.925 297.295C347.745 297.167 347.546 297.023 347.369 296.895L346.918 296.567C344.475 294.824 340.056 291.618 337.43 289.737L336.21 288.865C333.896 287.223 331.28 285.673 329.518 283.426C321.952 271.889 340.519 254.719 350.284 250.223C325.049 232.106 300.081 213.605 274.755 195.617C268.545 191.261 262.064 187.095 254.916 184.455C241.738 179.606 227.401 178.591 214.231 173.794C207.979 217.297 86.3683 209.798 121.224 165.186C126.715 160.167 129.983 156.8 131.642 149.127ZM83.7747 235.801C84.0249 234.215 86.1125 232.577 87.738 232.779C107.247 235.22 126.99 235.32 146.523 233.08C149.325 232.759 151.029 235.96 150.494 238.299L148.064 248.905L147.988 249.245C147.363 252.088 146.964 255.278 145.883 258.035C146.19 260.785 146.848 263.643 147.513 266.533C149.322 274.4 151.188 282.507 146.203 289.335C135.547 300.127 117.534 305.835 103.049 300.063C98.534 298.14 94.601 294.976 92.0012 290.777C89.4534 286.664 88.3119 281.878 87.2906 277.185L86.7809 274.829C84.0111 261.961 81.7011 248.956 83.7747 235.801ZM45.8231 267.553C28.9413 242.151 12.8488 270.256 5.82108 287.195C-2.02698 309.099 12.8936 335.764 23.9333 355.496C24.5778 356.647 25.2085 357.776 25.8221 358.877C29.9132 364.427 35.2969 376.133 42.5074 376.982C60.6792 376.908 78.8752 375.629 97.0571 375.247C108.797 372.335 92.3255 354.692 80.9474 361.136C77.5 362.426 75.7777 366.34 72.4162 367.596C71.3026 367.833 71.1316 367.403 70.7352 366.407C70.6956 366.307 70.6539 366.202 70.6087 366.091L70.5381 365.921C69.6499 363.81 68.7885 361.688 67.9138 359.572C60.5114 341.343 52.6854 323.274 44.9028 305.214C43.2415 301.292 45.5749 298.062 48.6045 295.728C49.2387 295.207 50.4381 294.481 51.6617 293.742C54.9254 291.774 58.3365 289.715 51.4997 291.207C55.1208 282.806 50.7725 274.28 45.8231 267.553Z" fill="white"/>
<path fill-rule="evenodd" clip-rule="evenodd" d="M186.113 133.49C186.133 133.346 186.361 133.356 186.392 133.49C187.709 139.216 189.67 144.696 193.416 149.335C195.229 151.575 197.383 153.609 199.817 155.156C202.254 156.707 204.828 157.145 207.437 158.062C207.937 157.648 208.499 157.321 209.037 157.097C210.339 156.559 212.001 156.735 213.324 157.238C218.66 157.362 224.016 158.196 229.248 159.168C235.069 160.247 240.867 161.44 246.64 162.749C252.406 164.059 258.141 165.528 263.846 167.089L264.184 167.181C269.27 168.555 274.819 169.676 279.435 172.269C281.397 173.371 283.158 174.8 284.884 176.245L288.25 179.071L295.135 184.865C299.009 188.122 302.894 191.37 306.743 194.659C315.973 202.548 325.182 210.458 334.444 218.313C339.6 222.687 344.756 227.061 349.912 231.431C352.446 233.582 354.979 235.733 357.512 237.88C360.207 240.165 363.072 242.346 365.557 244.856C366.467 245.773 366.205 247.217 365.167 247.892C364.826 248.113 364.492 248.34 364.157 248.578C367.873 251.135 371.347 253.897 374.68 257.03C378.923 261.01 383.079 265.112 387.054 269.365C391.014 273.605 394.939 277.885 398.796 282.218L398.954 282.395C400.632 284.291 402.244 286.306 403.06 288.732C403.949 291.372 403.549 294.085 402.464 296.59C400.392 301.354 397.087 305.796 394.229 310.115C391.283 314.565 388.208 318.918 384.999 323.181C378.416 331.919 371.392 340.432 363.64 348.163C355.196 356.587 346.017 364.431 336.026 370.963C333.651 372.514 331.435 368.702 333.806 367.168C350.915 356.104 365.253 341.022 377.823 325.108C384.1 317.164 389.959 308.861 395.429 300.34L395.562 300.134C396.902 298.066 398.456 295.942 399.11 293.547C399.787 291.063 398.75 288.898 397.291 286.943L397.125 286.722C393.785 282.366 389.849 278.364 386.175 274.287L384.411 272.331C380.883 268.418 377.344 264.511 373.68 260.721C371.475 258.443 369.258 256.164 367.011 253.931C365.87 252.795 364.79 251.595 363.721 250.386L362.92 249.478C360.362 251.413 357.966 253.67 355.661 255.896L354.138 257.371C350.746 260.659 347.541 264.13 344.522 267.766C340.506 272.598 336.908 277.713 333.627 283.035C333.758 283.135 333.885 283.235 334.016 283.338C334.13 283.428 334.23 283.531 334.313 283.641C337.06 285.054 339.595 286.89 342.116 288.678L342.836 289.187C344.853 290.604 346.865 292.027 348.84 293.502C348.911 293.555 348.983 293.608 349.055 293.662C350.636 294.843 352.441 296.191 351.887 298.39C351.649 299.337 350.457 300.134 349.485 299.754C348.916 299.533 348.527 299.241 348.182 298.893C347.285 301.203 345.806 303.458 344.415 305.464L344.084 305.941C342.498 308.216 340.842 310.44 339.178 312.657L337.928 314.32C334.247 319.222 330.49 324.091 326.62 328.844C318.971 338.236 310.803 347.249 301.724 355.283C296.544 359.871 291.15 364.231 285.449 368.157C282.437 370.235 279.545 365.282 282.578 363.249C301.768 350.384 316.743 332.246 331.566 314.743L333.662 312.271C335.827 309.723 338.011 307.184 340.272 304.725C342.378 302.432 344.728 299.796 347.413 298.059C347.401 298.042 347.387 298.026 347.372 298.01L347.282 297.91C346.662 297.231 345.887 296.67 345.183 296.08C343.412 294.598 341.626 293.13 339.834 291.669C338.183 290.325 336.505 288.997 334.943 287.55C333.658 289.273 331.831 290.683 330.015 291.827L329.839 291.939C329.722 292.012 329.604 292.084 329.487 292.155C328.908 292.503 328.319 292.578 327.788 292.454H327.785L327.709 292.481C327.128 292.665 326.472 292.467 326.003 292.051C320.843 290.562 315.994 287.698 311.165 285.406C305.874 282.897 300.521 280.505 295.141 278.199C285.194 273.935 274.985 269.962 264.618 266.794C260.754 291.796 259.775 316.923 261.45 342.179C261.933 349.397 262.405 356.618 263.246 363.804C263.656 364.217 264.049 364.641 264.335 365.117C265.324 366.768 264.959 368.815 263.318 369.932C261.729 371.015 259.474 371.012 257.465 371.009C256.96 371.009 256.471 371.008 256.011 371.025L254.859 371.063C252.938 371.119 251.014 371.142 249.091 371.161L244.541 371.204C234.821 371.278 225.098 371.171 215.377 371.034L203.188 370.858C181.618 370.55 160.034 370.332 138.483 371.466C131.821 371.814 125.179 372.369 118.534 372.955C111.954 373.534 105.34 373.947 98.7674 373.072C96.5788 372.779 95.8653 370.907 96.3892 369.474C94.2006 370.094 91.7914 370.084 89.5476 370.256L89.0295 370.295C86.6161 370.467 84.2635 370.517 81.8925 369.873C81.248 369.698 81.0102 368.646 81.6926 368.34C84.9394 366.878 88.4205 366.782 91.912 366.492L92.8209 366.418C93.4275 366.365 94.0341 366.3 94.6314 366.179C94.72 366.161 94.9526 366.077 95.2363 365.969L95.9204 365.706C95.8205 365.586 95.7206 365.462 95.6241 365.365C95.0622 364.807 94.4728 364.293 93.8214 363.838C90.685 361.657 87.0625 360.957 83.5779 361.529C83.1402 362.125 82.5336 362.594 81.8305 362.787C81.1825 362.966 80.4794 362.901 79.8349 362.656C78.6078 363.204 77.4325 363.918 76.3399 364.786C76.1676 364.924 75.8781 364.752 76.0125 364.531C76.6777 363.442 77.4704 362.491 78.3597 361.681C77.6152 360.891 77.2567 359.799 77.7186 358.675C78.3252 357.2 79.1972 355.311 80.7137 354.563C80.6724 354.127 80.7083 353.668 80.763 353.192L80.8068 352.833C80.9964 351.282 81.1584 349.728 81.3135 348.17C81.6271 345.061 81.8546 341.945 81.9925 338.825C82.2716 332.58 82.1648 326.331 81.927 320.09C81.441 307.434 79.921 294.833 78.0392 282.318C77.9047 281.428 77.7703 280.536 77.6393 279.647C77.6255 279.899 77.5532 280.157 77.436 280.432C76.8362 281.856 75.5162 283.262 74.5304 284.448C72.5703 286.795 70.2101 288.591 67.7753 290.368L66.4477 291.334C65.3213 292.156 64.2191 293.017 63.2667 294.036C62.2982 295.074 61.8432 296.325 61.0781 297.483C60.2267 298.779 58.9756 299.658 57.3822 299.617C56.1208 299.583 54.8903 298.92 53.746 298.221L52.6741 297.559C52.1123 298.072 51.3161 298.307 50.3545 297.982C49.803 297.797 49.2515 297.607 48.7001 297.411C48.2761 298.407 46.9595 300.07 46.6424 300.408L46.601 300.447C45.7945 301.209 44.8777 301.853 43.8989 302.384C43.9713 302.391 44.0436 302.419 44.0953 302.474C48.0831 306.483 50.3476 312.3 52.5396 317.473L52.7706 318.015C54.8834 322.961 56.8583 327.967 58.8126 332.977L60.8024 338.091C62.8107 343.25 64.8091 348.413 66.6134 353.646C67.6509 356.659 68.6504 359.682 69.6706 362.701C70.6736 365.675 71.9868 368.709 72.683 371.766C73.2138 374.095 69.905 375.719 68.6918 373.451C67.2166 370.697 66.2274 367.574 65.0383 364.683C63.8216 361.722 62.6015 358.758 61.3883 355.794C59.4251 350.991 57.6476 346.113 55.8933 341.229L54.1872 336.468C52.2088 330.95 50.2373 325.426 48.4243 319.848C47.4731 316.919 46.5494 313.989 45.6326 311.053L45.1845 309.615C44.471 307.345 43.7989 305.1 43.4887 302.725C43.4818 302.678 43.4887 302.632 43.5025 302.594C43.0717 302.812 42.6271 303.008 42.179 303.184C40.3626 303.894 38.4566 304.252 36.523 304.466L36.3989 304.48C36.2335 304.499 36.0646 304.518 35.8957 304.538C33.9656 304.766 31.9699 305.002 30.3948 303.718C29.6607 303.122 29.6814 301.688 30.3948 301.092C31.708 299.99 33.4003 300.001 35.0788 300.01C35.6751 300.014 36.268 300.018 36.8436 299.972C38.9012 299.803 40.9313 299.382 42.8338 298.569C44.0712 298.038 45.0466 297.204 46.084 296.431C37.588 293.095 29.5573 288.249 24.4597 280.467C21.2232 275.517 20.1651 269.973 19.5516 264.201L19.4896 263.623C19.169 260.476 19.1242 257.581 20.7683 254.762C22.4847 251.811 24.6423 249.051 26.5552 246.221C34.4653 234.53 42.3307 222.811 50.196 211.092C54.0907 205.285 57.8027 199.343 61.7433 193.566C63.4666 191.04 65.3003 188.344 67.6612 186.373C69.9808 184.436 72.6244 183.033 75.2921 181.644L76.656 180.936C83.0227 177.638 89.4183 174.402 95.9101 171.352C97.213 170.739 98.5985 170.046 100.043 169.357C102.421 167.919 105.292 166.951 107.832 165.896L108.345 165.684C110.916 164.628 113.545 163.628 116.211 162.849C118.2 162.267 120.574 162.505 121.598 164.273C123.335 163.005 124.855 161.495 126.258 159.851C127.957 157.866 129.374 155.598 130.446 153.213C131.001 151.982 131.421 150.69 131.793 149.39C132.114 148.273 132.214 147.095 132.734 146.05C132.851 145.816 133.265 145.799 133.375 146.05C134.341 148.234 133.738 151.292 133.138 153.603L133.024 154.036C132.248 156.935 130.904 159.651 129.126 162.064C127.42 164.38 125.248 166.362 122.88 167.985C124.014 171.466 124.948 174.999 126.313 178.421C127.702 181.913 129.239 185.632 132.031 188.248C136.86 192.775 144.803 192.798 151.304 192.817C151.797 192.818 152.283 192.82 152.758 192.823L153.84 192.833C169.161 192.956 185.476 190.379 197.094 179.535C199.999 176.822 202.298 173.724 204.229 170.26C205.307 168.323 206.3 166.334 207.406 164.414C207.779 163.77 208.144 163.125 208.54 162.512C208.444 162.567 208.34 162.615 208.23 162.657C204.712 164.031 200.882 161.985 198.048 159.866L197.831 159.703C195.057 157.586 192.703 154.953 190.793 152.037C187.295 146.698 185.148 139.909 186.113 133.49ZM106.28 239.185C100.41 239.146 94.5345 239.106 88.6893 238.704C88.679 238.955 88.6721 239.203 88.6652 239.455C91.3295 239.069 94.2075 239.662 96.7063 240.544C99.3257 241.468 101.966 242.612 104.768 242.815C107.384 243.005 109.762 242.126 112.099 241.051L113.087 240.598C114.077 240.146 115.069 239.702 116.07 239.314C116.028 239.314 115.987 239.31 115.946 239.31L114.899 239.286C112.03 239.224 109.156 239.204 106.28 239.185ZM127.988 239.727C128.633 239.751 129.277 239.779 129.922 239.807C132.307 239.91 134.692 240.027 137.077 240.162C137.539 240.187 138.03 240.244 138.533 240.303C139.831 240.455 141.211 240.617 142.378 240.255C142.419 240.42 142.475 240.579 142.547 240.734C142.302 241.954 142.151 243.215 142.058 244.491C140.562 244.653 139.042 244.597 137.567 244.291C134.027 243.557 131.152 241.323 127.988 239.727ZM102.035 245.242C97.6679 244.108 93.1942 241.134 88.6204 240.975C88.5308 243.953 88.4653 246.931 88.4481 249.901C90.0094 248.654 92.2911 248.196 94.3591 248.558C96.3292 248.901 98.2252 249.987 100.124 251.076C102.976 252.71 105.834 254.348 108.963 253.479C111.286 252.831 113.205 251.16 115.191 249.867C117.176 248.575 119.447 247.516 121.85 247.42C124.083 247.328 126.075 248.296 127.602 249.888C129.263 251.622 130.401 253.728 132.82 254.513C135.325 255.324 137.49 254.461 139.59 253.148L139.828 252.997C140.489 252.57 141.186 252.101 141.909 251.687C141.91 251.302 141.91 250.914 141.91 250.523V250.52C141.91 249.546 141.909 248.561 141.927 247.575C137.521 247.942 133.679 246.471 129.905 244.323L129.508 244.094C127.437 242.888 125.307 241.554 122.897 241.161C120.426 240.761 118.031 241.641 115.801 242.619L115.24 242.867C110.895 244.782 106.913 246.508 102.035 245.242ZM118.248 251.804C119.547 251.119 121.129 250.481 122.632 250.681C124.066 250.87 125.021 251.843 125.904 252.882L126.382 253.452C127.962 255.32 129.517 256.891 131.952 257.66C134.475 258.453 137.149 258.143 139.497 256.981C140.331 256.568 141.106 256.054 141.885 255.547L141.844 261.045C140.286 261.82 138.7 262.52 136.96 262.944C133.748 263.726 131.018 263.147 128.271 261.376L127.982 261.188C125.913 259.829 123.792 258.212 121.236 258.06C118.742 257.911 116.87 259.294 115.228 260.986L115.036 261.186C112.964 263.371 110.872 264.436 107.791 264.185C104.804 263.941 102.008 262.622 99.271 261.485L99.0225 261.383C96.5202 260.355 93.6353 259.297 90.8883 259.69C90.23 259.783 89.3787 259.987 88.6204 260.342C88.5101 257.77 88.4584 255.196 88.4481 252.618C90.0094 251.264 92.4393 251.039 94.3936 251.594C97.4542 252.463 99.96 254.703 102.883 255.92C105.475 256.999 108.177 257.24 110.82 256.219C113.55 255.165 115.691 253.155 118.248 251.804ZM123.504 262.317C122.546 261.782 121.433 261.262 120.306 261.479C119.139 261.706 118.297 262.627 117.509 263.465L117.248 263.74C115.453 265.601 113.502 266.959 110.903 267.377C108.098 267.828 105.185 267.304 102.555 266.298C99.7807 265.239 97.1716 263.764 94.3694 262.775C93.0873 262.324 91.6431 261.89 90.2679 261.896C89.6923 261.9 89.1926 262.031 88.71 262.21C88.8445 264.819 89.0443 267.425 89.3201 270.03C92.8267 268.194 97.3867 270.031 100.9 271.645L101.545 271.944C104.32 273.232 107.019 274.204 110.124 273.918C113.061 273.648 115.338 272.264 117.685 270.671L118.303 270.249C120.357 268.857 122.759 267.633 125.307 268.262C127.799 268.876 129.705 270.84 132.19 271.568C134.627 272.281 137.249 272.357 139.724 271.792C140.42 271.63 141.103 271.427 141.768 271.175C141.785 269.083 141.802 266.99 141.816 264.898C138.28 266.398 134.385 267.187 130.825 266.27C128.057 265.557 125.948 263.672 123.504 262.317ZM19.5206 264.23C19.5792 263.968 19.2655 263.768 19.0622 263.965C15.6259 267.276 13.1994 271.509 10.5351 275.431C7.99838 279.167 5.23761 282.759 3.3454 286.881C1.58759 290.714 0.453644 294.602 0.115845 298.813C-0.221924 302.995 0.21582 307.186 0.95343 311.304C2.40445 319.418 5.50644 327.1 8.91174 334.563C12.224 341.817 15.9636 348.865 19.9135 355.784L21.3301 358.255C23.0569 361.262 24.8044 364.265 26.6725 367.178C28.9989 370.804 31.1221 374.547 34.1896 377.574C36.3679 379.728 40.4729 377.574 39.4802 374.495C39.0494 373.155 38.7116 371.893 38.043 370.649C37.5363 369.701 36.9642 368.781 36.4265 367.847C35.3511 365.979 34.2861 364.104 33.2108 362.236C30.9532 358.31 28.575 354.457 26.3381 350.517C22.4571 343.686 18.7934 336.727 15.5535 329.565L15.1743 328.719C12.193 322.087 9.36673 315.218 8.05698 308.044C6.67831 300.485 7.91223 293.361 10.5972 286.257C11.9862 282.583 13.5475 278.992 15.1709 275.414L15.4845 274.731C17.0528 271.316 18.7141 267.92 19.5206 264.23ZM120.319 272.891L120.734 272.623C121.829 271.924 123.086 271.2 124.428 271.457C125.627 271.688 126.658 272.643 127.702 273.232C129.994 274.525 132.565 275.231 135.188 275.411C137.37 275.559 139.635 275.293 141.734 274.645L141.661 281.422C140.893 281.666 140.096 281.842 139.259 281.904C136.715 282.094 134.234 281.484 132.1 280.081L131.021 279.364C129.174 278.151 127.441 277.188 124.997 277.631C122.577 278.071 120.547 279.622 118.568 280.974L118.244 281.191C115.972 282.691 113.669 283.66 110.882 283.683C107.873 283.706 104.899 282.869 102.097 281.839C99.3154 280.819 96.6718 279.595 93.6974 279.219C92.7874 279.105 91.6776 279.071 90.6332 279.25C90.4954 278.482 90.3644 277.717 90.2403 276.948C89.9715 275.297 89.7406 273.649 89.5407 271.998C93.028 271.06 96.3392 272.748 99.5987 274.41C101.271 275.263 102.93 276.109 104.592 276.589C107.436 277.41 110.531 277.4 113.374 276.607C116.006 275.872 118.074 274.348 120.319 272.891ZM121.122 283.399L120.75 283.652C118.458 285.189 116.159 286.436 113.392 286.836C110.555 287.246 107.677 286.895 104.923 286.154C102.111 285.399 99.4981 284.107 96.8269 282.973C95.4138 282.373 93.9869 281.835 92.4703 281.556C91.9878 281.466 91.5121 281.442 91.0434 281.442C91.0675 281.577 91.0951 281.715 91.1227 281.849C91.3881 283.193 91.457 285.11 92.267 286.254C93.0114 287.309 94.6107 287.908 95.6792 288.536L95.8033 288.608L96.0828 288.61C96.9217 288.624 97.7658 288.719 98.5847 288.88C100.355 289.226 102.097 289.946 103.844 290.669C106.998 291.974 110.168 293.285 113.55 292.406C117.838 291.296 121.226 287.963 125.71 287.388C128.092 287.081 130.266 287.729 132.421 288.698L133.175 289.036C134.294 289.534 135.358 289.988 136.464 290.366C138.166 289.635 139.869 288.911 141.582 288.205L141.616 285.144C139.352 285.613 136.939 285.54 134.833 285.054C133.565 284.761 132.314 284.275 131.176 283.641C130.046 283.014 129.105 282.073 127.957 281.491C125.618 280.304 123.319 281.887 121.363 283.233C121.282 283.289 121.202 283.344 121.122 283.399ZM126.417 290.586C128.485 290.442 130.346 291.296 132.193 292.206C131.152 292.658 130.111 293.106 129.07 293.55L122.143 296.508C119.854 297.483 117.431 298.331 115.256 299.533C115.101 299.62 114.977 299.723 114.884 299.844C112.623 298.397 110.231 297.104 107.939 295.729C107.415 295.415 106.888 295.101 106.36 294.788C109.09 295.701 111.889 296.16 114.853 295.301C118.806 294.16 122.239 290.879 126.417 290.586Z" fill="black"/>
<path d="M104.541 82.3762C105.283 75.8568 104.322 62.23 104.258 61.4021C103.851 56.1683 106.304 35.5011 110.939 37.4054C118.716 31.2493 129.073 29.8899 138.758 29.2406C158.876 27.8915 180.277 30.9884 195.811 44.5269C203.493 51.5577 210.972 61.7836 210.371 72.4312C217.351 82.5237 227.191 96.3679 218.495 108.167C215.538 111.937 210.84 113.34 207.127 116.195C199.657 122.22 194.971 130.866 187.43 136.855C167.454 154.807 133.533 158.556 113.905 138.138C98.7278 123.351 101.182 101.228 103.851 82.3762C105.646 69.7018 103.093 95.0947 104.541 82.3762Z" fill="white"/>
<path fill-rule="evenodd" clip-rule="evenodd" d="M149.233 0.0360494C154.728 -0.167304 160.252 0.508242 165.633 1.59394C176.311 3.74467 187.247 7.26371 196.918 12.3096C200.979 14.4293 204.726 17.0471 208.104 20.0626C211.159 18.6022 215.977 18.4836 216.956 21.8324C217.237 22.7937 217.097 23.665 216.694 24.4102C216.811 24.4771 216.927 24.5487 217.041 24.6249C217.811 25.1408 218.223 25.5162 218.7 25.99L219.076 26.3676C220.269 27.5639 220.381 29.7777 219.076 30.9589L218.898 31.1202L218.788 31.216C218.565 31.4028 218.327 31.5607 218.078 31.6916C222.652 38.7016 225.757 46.6903 227.042 55.0381C227.797 59.9393 228.017 64.8404 227.449 69.7726C227.173 72.1818 226.759 74.753 225.915 77.0313C225.505 78.1446 224.926 79.2268 224.405 80.2953C223.84 81.4603 222.913 82.3116 222.151 83.3525C222.069 83.4593 221.938 83.5145 221.81 83.5179C222.041 83.9936 222.251 84.4761 222.447 84.9552C223.575 87.7091 224.443 90.6766 224.946 93.6097C225.894 99.1416 225.315 105.363 221.104 109.502C219.425 111.15 216.826 112.47 214.272 112.821C215.089 113.662 215.747 114.662 216.274 115.813C217.26 117.96 215.616 120.866 213.004 120.066C212.507 119.915 212.015 119.722 211.532 119.508C210.781 121 209.174 122.01 207.451 121.752C206.448 121.6 205.725 121.211 205.228 120.663C203.984 123.413 202.333 125.912 200.241 128.118C198.028 130.455 195.584 132.561 193.378 134.904C191.235 137.179 189.963 140.15 187.436 142.025C186.651 142.608 185.447 141.987 185.227 141.125C184.37 137.772 186.677 134.98 188.866 132.674L189.142 132.385C191.49 129.945 194.202 127.908 196.701 125.633C199.296 123.268 201.385 120.759 203.267 117.795C203.43 117.54 203.592 117.28 203.754 117.017L204.494 115.817C204.532 115.641 204.573 115.469 204.621 115.3C204.659 114.621 204.887 113.976 205.324 113.383C205.866 112.649 206.589 112.094 207.396 111.836C207.668 111.546 207.951 111.27 208.247 111.015C207.879 110.612 207.554 110.137 207.279 109.585C206.769 108.558 207.365 106.924 208.73 107.059C209.14 107.098 209.542 107.079 209.945 107.061C210.385 107.04 210.825 107.02 211.273 107.076C211.381 107.089 211.488 107.103 211.595 107.118C212.332 107.215 213.067 107.312 213.81 107.21C215.337 106.993 216.705 106.166 217.698 105.008C220.183 102.113 220.445 97.9491 219.925 94.337C219.695 92.7243 219.302 91.1395 218.884 89.5634L218.238 87.1493C217.87 85.8003 217.427 84.4023 216.56 83.3042C213.842 79.8572 209.185 82.5621 206.398 84.637L206.145 84.8276C206.121 84.8449 206.1 84.8518 206.076 84.8518C205.928 85.093 205.769 85.3309 205.604 85.5583C204.691 86.7922 203.584 87.8883 202.443 88.9223L202.21 89.1346C202.054 89.2756 201.896 89.4152 201.74 89.553C200.406 90.7283 198.6 89.8632 198.424 88.1813C198.097 85.0103 198.186 81.8049 197.983 78.6202C197.78 75.432 197.414 72.2542 196.87 69.1074C196.325 65.964 195.622 62.8517 194.764 59.7842C194.333 58.2469 193.861 56.727 193.358 55.2139C192.975 54.0489 192.689 52.1601 191.679 51.3502C190.766 50.6126 189.046 50.4885 187.926 50.2507C186.361 49.9164 184.786 49.6199 183.218 49.2856C180.284 48.6549 177.355 47.969 174.466 47.1556C171.606 46.3491 168.769 45.3978 166.022 44.2535C166.811 45.577 167.594 46.904 168.37 48.2344C169.431 50.0577 168.039 52.005 166.112 52.167C164.134 52.3325 162.131 52.1843 160.201 51.7155C159.79 51.6156 159.415 51.5018 159.067 51.3674C156.947 51.2154 154.784 50.7318 152.793 50.241L151.863 50.0094C148.079 49.0581 144.443 47.7587 140.858 46.225C140.456 46.0533 140.054 45.8782 139.653 45.7C138.166 45.2513 136.701 44.7298 135.265 44.1366C129.942 44.9421 124.512 44.6299 119.282 43.3436C117.024 42.7886 114.57 42.0924 112.237 41.1273C111.075 43.1092 109.293 44.7153 107.305 45.8803C107.087 47.6002 106.967 49.3373 106.888 51.0606C106.633 56.5546 106.343 62.0486 106.043 67.5392L105.947 69.317C105.38 79.9868 105.033 90.6735 104.951 101.354C104.875 111.088 105.471 120.697 110.744 129.162C115.187 136.304 122.118 141.987 130.166 144.538C135.109 146.102 140.348 146.606 145.508 146.106C148.027 145.861 150.522 145.286 152.932 144.514L153.278 144.404C155.698 143.658 158.001 143.289 160.525 142.983C162.193 142.78 162.596 144.944 161.758 145.961C159.987 148.105 158.095 149.535 155.462 150.507C153.083 151.383 150.561 151.938 148.055 152.3C142.885 153.044 137.67 152.961 132.562 151.793C123.083 149.628 114.705 143.935 108.869 136.211C102.462 127.728 100.398 117.588 100.263 107.141C100.118 95.9624 100.673 84.7298 101.411 73.5695L101.566 71.2616C101.897 66.4328 102.248 61.5868 102.797 56.7683C101.89 56.8579 100.939 56.5753 100.167 55.7998C98.6624 54.2957 98.3064 51.9806 98.1275 49.8898L98.0813 49.3132C97.9366 47.3865 98.2299 45.415 98.7569 43.5641C99.4834 41.0295 100.701 38.8953 102.422 37.1082C100.118 34.6245 98.8765 31.1095 98.6028 27.791C98.4053 25.3997 98.2216 22.2567 100.86 21.1424C101.382 20.9222 101.921 20.8408 102.463 20.8522C102.324 20.0005 102.23 19.1385 102.177 18.2662C102.093 16.8792 103.516 15.3589 104.941 15.5023C105.373 15.5461 105.806 15.5926 106.239 15.6377C105.98 15.2238 105.721 14.8109 105.454 14.4021C104.332 12.6867 105.848 10.7741 107.619 10.6277C112.327 10.2385 116.987 9.27312 121.479 7.8107C125.991 6.34104 130.705 4.86207 134.99 2.81647C135.293 2.67206 135.627 2.77891 135.834 2.98708C139.44 0.583207 144.676 0.217723 148.81 0.052502L149.233 0.0360494ZM210.194 91.003C211.795 90.2589 213.962 89.2511 215.626 89.7943C216.388 90.0424 216.612 90.849 216.268 91.4418H216.295L216.224 91.5559C215.907 92.0377 215.501 92.3645 215.056 92.6747L214.848 92.817C215.406 93.2134 215.834 93.7855 216.02 94.5162C216.319 95.6777 215.834 97.1047 214.731 97.6871C214.289 97.9181 213.81 98.0456 213.311 98.0697C212.606 98.1008 212.017 97.7761 211.484 97.3701L211.325 97.246C211.091 97.0599 210.901 96.8117 210.75 96.5429C209.464 98.2042 208.382 100.165 206.11 100.227C205.025 100.258 203.798 99.3933 203.574 98.2938C203.549 98.1869 203.529 98.0801 203.508 97.9767C203.298 96.9461 203.449 95.7398 204.294 95.0022C205.989 93.527 207.74 92.1311 209.798 91.1867C209.926 91.1282 210.058 91.0665 210.194 91.003Z" fill="black"/>
<path fill-rule="evenodd" clip-rule="evenodd" d="M122.773 59.7903L123.269 59.689C123.851 59.5723 124.437 59.6217 124.951 59.831C125.456 60.0363 125.895 60.3938 126.203 60.9097C126.611 61.5966 126.666 62.173 126.476 62.9344C126.33 63.5227 126.009 63.9653 125.589 64.285C125.147 64.6218 124.586 64.8183 124.004 64.8867C121.317 65.2022 118.672 65.7932 116.1 66.6321C114.895 67.0253 113.757 67.5579 112.63 68.1106L111.659 68.5893C110.763 69.0275 109.837 69.4499 108.667 69.7565C108.575 69.7806 108.484 69.8033 108.394 69.8247C108.07 69.7228 108.015 69.5994 107.946 69.51L107.918 69.4751C107.835 69.3702 107.732 69.2098 107.829 68.4612C110.381 63.1673 117.384 60.9169 122.773 59.7903ZM156.22 61.292L155.573 61.1788C153.572 60.8326 151.083 60.4999 149.667 62.1093C148.916 62.9626 148.657 64.5488 149.667 65.3657C150.989 66.4357 152.415 66.4004 153.935 66.3627C154.457 66.3497 154.99 66.3365 155.533 66.3676C157.287 66.4682 158.973 66.7585 160.662 67.2413C164.368 68.3005 167.387 70.2341 170.552 72.3572C170.968 72.6357 171.392 72.1046 171.193 71.7161C169.366 68.1375 165.826 65.1978 162.279 63.4059C160.386 62.4494 158.315 61.656 156.22 61.292ZM160.916 76.9109C160.629 73.3415 155.192 72.5309 154.652 76.063C154.167 79.2271 154.738 82.1337 156.163 84.9823C157.524 87.7038 160.947 86.4341 161.206 83.956C161.462 81.5082 161.28 80.0481 161.096 78.5608C161.03 78.0297 160.963 77.4952 160.916 76.9109ZM116.371 74.0433C117.682 73.6604 118.776 74.338 119.534 75.3307C119.622 75.4451 119.693 75.5585 119.757 75.6708C122.124 77.845 121.232 82.2529 119.371 84.4602C118.229 85.8137 115.702 85.4239 114.921 83.8867C113.482 81.0559 112.275 75.2404 116.371 74.0433ZM126.869 100.656C124.068 96.734 128.034 93.045 130.637 91.463C131.319 90.9736 130.778 89.3524 129.321 89.6029C116.086 91.8767 122.943 114.673 139.84 102.164C141.852 100.541 139.416 96.9663 137.248 98.356C137.138 98.4405 137.023 98.5294 136.902 98.6225C134.466 100.506 130.009 103.952 126.869 100.656ZM138.988 124.744C141.304 123.799 143.372 122.222 144.883 120.208C145.409 119.508 145.545 118.768 145.435 118.092C145.311 117.332 144.861 116.643 144.247 116.18C143.632 115.717 142.862 115.488 142.118 115.605C141.471 115.706 140.827 116.06 140.318 116.794L140.211 116.941C139.313 118.157 138.142 119.154 136.808 119.797C135.522 120.417 134.084 120.706 132.596 120.538C129.761 120.218 127.807 118.684 125.731 116.603C125.473 116.34 125.216 116.069 124.957 115.793C124.794 115.544 124.567 115.383 124.315 115.299C124.035 115.206 123.719 115.211 123.429 115.312C123.15 115.41 122.9 115.595 122.733 115.84C122.574 116.074 122.483 116.363 122.513 116.695C122.703 118.852 123.831 120.778 125.433 122.289C127.212 123.969 129.57 125.13 131.791 125.537C134.238 125.986 136.73 125.665 138.988 124.744Z" fill="black"/>
<path fill-rule="evenodd" clip-rule="evenodd" d="M109.415 117.214C108.541 118.712 107.804 120.302 107.219 121.944C106.944 122.716 104.881 131.063 106.186 135.846C107.442 140.45 109.714 144.817 112.588 148.65C115.229 152.17 118.557 155.095 122.681 156.714C128.061 158.826 134.477 158.232 140.091 157.687C147.102 157.003 153.994 155.444 160.661 153.187C163.996 152.063 167.269 150.765 170.495 149.361C173.665 147.985 177.035 146.628 180.005 144.845C182.559 143.309 184.738 140.894 186.824 138.8C190.111 135.501 193.326 132.061 196.166 128.362C198.816 124.912 200.799 121.717 201.47 117.352C202.508 110.585 201.543 103.475 200.621 96.6859C200.547 96.1369 200.473 95.59 200.4 95.0455C200.372 94.8178 200.014 94.697 199.938 94.9317C199.945 94.804 199.952 94.6767 199.959 94.549C199.983 94.0035 199.188 93.9314 199.04 94.4245C197.229 100.415 194.273 105.866 190.022 110.472C184.168 116.812 176.687 121.212 169.423 125.785C169.18 125.556 168.884 125.392 168.57 125.33C167.52 120.606 164.047 116.214 160.612 113.225C150.558 104.483 134.449 100.725 121.999 106.056C116.736 108.312 112.303 112.26 109.415 117.214ZM145.45 113.805C152.462 115.562 158.553 120.366 161.343 126.904C161.554 128.33 161.537 129.774 161.235 131.205C155.283 135.388 147.974 137.586 140.66 136.734C138.381 133.907 135.859 129.085 132.027 128.529C129.191 128.118 127.183 129.986 125.166 131.864C124.13 132.828 123.092 133.795 121.937 134.456C121.748 134.564 121.541 134.67 121.327 134.772C119.144 134.591 116.954 134.081 115.118 132.835C113.238 131.558 112.526 129.83 112.191 127.799C112.286 127.412 112.389 127.027 112.499 126.644C113.27 123.953 114.368 121.327 115.982 119.033C117.339 117.097 119.142 115.447 121.355 114.575C123.947 113.554 126.897 113.336 129.647 113.07C134.897 112.56 140.301 112.518 145.45 113.805Z" fill="black"/>
<path fill-rule="evenodd" clip-rule="evenodd" d="M93.8616 75.1357C92.9103 74.3385 91.2504 74.1496 90.1013 74.1472C87.4801 74.6487 88.5651 78.6434 93.5611 76.1583C86.0539 107.554 134.12 108.893 126.011 79.048C130.864 77.8806 135.988 77.7855 140.443 80.0017C136.597 93.6849 149.392 106.84 164.097 103.462C173.595 101.257 179.933 93.8948 176.997 83.0737C178.861 83.6582 182.356 83.1716 183.437 81.7167C187.176 81.3974 190.893 80.9418 194.605 80.4867C202.922 79.4672 211.216 78.4505 219.681 78.9753C220.832 79.1346 220.767 79.9459 220.703 80.7565C220.639 81.5641 220.575 82.3711 221.712 82.5326C224.329 82.2941 223.301 77.8734 221.428 77.1547C218.8 75.2711 196.198 77.1403 183.271 80.5304C181.555 79.4049 178.97 79.7488 176.933 80.0198C176.605 80.0634 176.291 80.1051 175.998 80.1385C173.452 73.7594 165.291 65.8076 157.103 67.1487C149.601 67.5861 143.299 70.5492 140.738 79.0111C136.827 75.4641 129.737 74.3188 125.228 77.001C122.727 71.3781 118.326 67.1487 112.396 65.2417C104.866 59.9028 96.2074 67.2246 93.8616 75.1357ZM99.7906 93.5622C103.975 97.8861 110.961 99.1269 116.528 96.808C130.824 90.8352 123.827 72.206 112.802 67.2032C111.424 66.8599 109.585 66.0455 107.907 65.8607C107.85 65.8326 107.767 65.8458 107.665 65.8622C107.496 65.8892 107.274 65.9247 107.025 65.798C94.8687 67.1553 92.1004 86.0264 99.7906 93.5622ZM166.447 99.9207C159.318 102.814 150.593 100.894 145.899 94.669C137.14 83.1912 145.545 63.73 165.9 71.3785C175.536 77.8548 180.531 94.3743 166.447 99.9207ZM176.43 80.8761C176.443 80.8699 176.456 80.8668 176.47 80.8606C176.395 80.8278 176.321 80.7951 176.247 80.7617C176.271 80.8247 176.297 80.8871 176.32 80.9502C176.357 80.925 176.389 80.8957 176.43 80.8761Z" fill="black"/>
</svg>
