<svg width="54" height="60" viewBox="0 0 54 60" fill="none" xmlns="http://www.w3.org/2000/svg">
<path d="M44.8477 28.0196C44.2768 25.9017 43.9135 21.3494 43.8934 21.0726C43.7665 19.3222 41.9236 12.6132 40.4864 13.4742C37.6083 11.8277 34.1168 11.8957 30.883 12.1648C24.1658 12.7238 17.2463 14.8164 12.7877 20.0674C10.5996 22.7752 8.63814 26.5289 9.36869 30.0184C7.56563 33.7031 5.00454 38.7708 8.46852 42.2366C9.63395 43.335 11.2571 43.5643 12.6272 44.3225C15.3972 45.9409 17.3781 48.5649 20.1697 50.1679C27.6697 55.1038 39.0695 54.6491 44.5375 46.9195C48.8157 41.2734 46.8996 34.0833 45.0755 27.9852C43.8491 23.8853 45.9614 32.1514 44.8477 28.0196Z" fill="white"/>
<path fill-rule="evenodd" clip-rule="evenodd" d="M25.9617 3.03449C24.1354 3.24171 22.343 3.74096 20.6188 4.36858C17.1966 5.61286 13.7575 7.32231 10.8125 9.47332C9.57611 10.3768 8.46844 11.4293 7.50222 12.5948C6.41975 12.2646 4.8211 12.4661 4.6648 13.6219C4.61997 13.9537 4.70974 14.2347 4.88026 14.4609C4.84475 14.4889 4.80994 14.5184 4.77615 14.5492C4.54726 14.7582 4.43006 14.9029 4.29607 15.0833L4.19044 15.2269C3.856 15.6819 3.92932 16.4193 4.41977 16.7446L4.48684 16.789L4.52792 16.8152C4.61077 16.8658 4.69756 16.9061 4.78642 16.9369C3.6246 19.4825 2.99735 22.2782 2.98947 25.1018C2.98466 26.7596 3.15666 28.3907 3.591 29.9926C3.80249 30.7752 4.06763 31.6044 4.46044 32.3154C4.65173 32.6628 4.89708 32.9917 5.12248 33.3189C5.36763 33.6757 5.71651 33.9108 6.02029 34.2168C6.05297 34.248 6.09901 34.2597 6.14134 34.2545C6.08888 34.4232 6.04337 34.5932 6.00247 34.7614C5.76736 35.728 5.6286 36.7523 5.60877 37.747C5.57177 39.6229 6.07392 41.6504 7.67278 42.8083C8.30991 43.269 9.23487 43.5756 10.0968 43.5642C9.86864 43.883 9.70096 44.2463 9.58427 44.6531C9.36568 45.4122 10.0541 46.2905 10.8778 45.8957C11.0344 45.8207 11.1875 45.7323 11.3365 45.6376C11.6593 46.0934 12.2407 46.3469 12.7975 46.1754C13.1214 46.0752 13.3411 45.9103 13.4779 45.7044C14.0265 46.5514 14.697 47.2949 15.4988 47.9195C16.3469 48.5815 17.2598 49.1555 18.1062 49.82C18.9283 50.4649 19.4972 51.3834 20.426 51.877C20.7147 52.0303 21.0815 51.7652 21.1113 51.4693C21.227 50.3181 20.325 49.5105 19.4863 48.8575L19.3805 48.7756C18.4826 48.0863 17.4844 47.5484 16.5448 46.9213C15.5688 46.2694 14.7529 45.5443 13.9828 44.6585C13.9164 44.5823 13.8498 44.5044 13.7829 44.4256L13.4785 44.0658C13.4571 44.0096 13.4348 43.9548 13.4106 43.9013C13.364 43.6788 13.2567 43.4771 13.0824 43.303C12.8668 43.0874 12.5999 42.9401 12.3204 42.8949C12.2159 42.8128 12.1086 42.7358 11.998 42.6663C12.0997 42.5146 12.1831 42.3412 12.2467 42.1451C12.364 41.7801 12.0853 41.2699 11.6409 41.3825C11.5073 41.4159 11.3733 41.4299 11.2393 41.4439C11.0928 41.4591 10.9464 41.4744 10.801 41.5152C10.7661 41.525 10.7314 41.5351 10.6966 41.5451C10.458 41.6141 10.2198 41.683 9.96904 41.6864C9.4536 41.6909 8.95999 41.4858 8.57403 41.1526C7.60787 40.3197 7.31332 38.9565 7.30493 37.7365C7.30041 37.192 7.3512 36.6485 7.41054 36.1066L7.50343 35.2764C7.55771 34.8121 7.63447 34.3279 7.86592 33.9216C8.59221 32.6464 10.2667 33.308 11.2917 33.8546L11.385 33.9049C11.3938 33.9094 11.401 33.9107 11.4089 33.9095C11.47 33.9818 11.5343 34.0525 11.6003 34.1194C11.9638 34.4817 12.3842 34.7887 12.8131 35.0735L12.9006 35.1321C12.9593 35.1709 13.0184 35.2091 13.077 35.2469C13.5766 35.5688 14.1303 35.1926 14.1045 34.6278C14.0542 33.5633 13.8646 32.5083 13.7726 31.4454C13.6806 30.3814 13.6428 29.3127 13.6656 28.2453C13.6886 27.1791 13.7655 26.1152 13.8959 25.0584C13.9615 24.5287 14.0417 24.0027 14.1324 23.4774C14.2008 23.0732 14.2011 22.4346 14.4943 22.1165C14.7595 21.827 15.3218 21.7001 15.6802 21.5655C16.1807 21.3769 16.6865 21.2002 17.1881 21.0114C18.1263 20.6564 19.0604 20.2833 19.9745 19.8702C20.8798 19.4607 21.77 19.0046 22.6208 18.4891C22.426 18.966 22.2336 19.4437 22.0437 19.9222C21.7839 20.5779 22.3414 21.1521 22.9865 21.1094C23.6486 21.0653 24.3032 20.9162 24.9177 20.6649C25.0484 20.6114 25.1669 20.555 25.2753 20.4932C25.9682 20.3371 26.6591 20.0692 27.2928 19.8075L27.5885 19.6845C28.7919 19.181 29.9289 18.5699 31.0373 17.8839C31.1614 17.8071 31.2855 17.7291 31.4095 17.6501C31.8785 17.4275 32.3366 17.182 32.7816 16.9142C34.5815 16.9146 36.3607 16.5401 38.0252 15.8537C38.7438 15.5575 39.5202 15.2048 40.2433 14.7693C40.7263 15.3663 41.3955 15.8082 42.111 16.094C42.2688 16.6516 42.3954 17.2198 42.5077 17.7855C42.8663 19.5888 43.2364 21.3904 43.6098 23.1903L43.7305 23.7731C44.4508 27.2717 45.0995 30.7869 45.66 34.3133C46.1713 37.5269 46.4542 40.733 45.1339 43.7945C44.022 46.377 42.0148 48.6019 39.482 49.847C37.9263 50.6111 36.2198 51.0391 34.4892 51.1317C33.6443 51.1766 32.7907 51.111 31.9556 50.9761L31.8357 50.9573C30.9987 50.8314 30.2188 50.8246 29.3694 50.8495C28.8077 50.8657 28.7826 51.6013 29.1103 51.8955C29.803 52.5157 30.4999 52.894 31.4188 53.0837C32.2487 53.2543 33.1103 53.3117 33.9567 53.3062C35.7029 53.294 37.4225 53.0062 39.0525 52.3649C42.0775 51.176 44.5626 48.8754 46.1057 46.0307C47.8 42.9069 47.9758 39.452 47.4986 35.9921C46.9882 32.2896 46.2438 28.6044 45.4423 24.9522L45.2758 24.1971C44.9252 22.6175 44.5669 21.0332 44.145 19.4678C44.4492 19.4522 44.7495 19.3112 44.966 19.0163C45.3881 18.444 45.3901 17.661 45.3448 16.9609L45.3313 16.768C45.2829 16.1239 45.0875 15.4869 44.8208 14.9014C44.4541 14.0999 43.9448 13.4553 43.2868 12.9505C43.9245 12.0144 44.1592 10.7905 44.0839 9.67995C44.0297 8.87964 43.9335 7.83154 43.0056 7.59501C42.8223 7.54824 42.64 7.5483 42.4612 7.57915C42.4647 7.29068 42.4527 7.00104 42.4266 6.71005C42.3852 6.24739 41.8389 5.81593 41.3752 5.93447C41.2343 5.97057 41.0935 6.00757 40.9527 6.04412C41.0175 5.89436 41.0828 5.74489 41.1506 5.59645C41.4356 4.9734 40.839 4.41692 40.2462 4.45697C38.6706 4.5635 37.0821 4.47714 35.5243 4.21809C33.9593 3.95768 32.3274 3.70425 30.8086 3.24214C30.7014 3.20952 30.5964 3.2615 30.5382 3.34068C29.2261 2.72621 27.4773 2.8669 26.1026 3.01878L25.9617 3.03449ZM10.3548 36.1485C9.7886 35.9824 9.02182 35.7576 8.49888 36.0202C8.25948 36.1403 8.2256 36.4181 8.36914 36.5969L8.36002 36.5982L8.38933 36.6324C8.51803 36.7758 8.66861 36.8636 8.83131 36.9439L8.90722 36.9805C8.74246 37.1394 8.62975 37.3499 8.60473 37.6007C8.56374 37.9996 8.79554 38.447 9.18922 38.5845C9.34669 38.6388 9.5113 38.657 9.6777 38.64C9.9123 38.6151 10.0905 38.4784 10.2466 38.3175L10.2928 38.2686C10.3611 38.1953 10.4114 38.1038 10.4479 38.0074C10.956 38.4923 11.4116 39.0865 12.1655 38.9936C12.5259 38.9496 12.8883 38.6024 12.9074 38.2277C12.9101 38.1912 12.9115 38.1549 12.9133 38.1196C12.9312 37.7685 12.821 37.3773 12.505 37.1757C11.8708 36.7728 11.2223 36.3988 10.495 36.1894C10.4499 36.1764 10.403 36.1626 10.3548 36.1485Z" fill="black"/>
<path fill-rule="evenodd" clip-rule="evenodd" d="M42.6631 26.7933C42.6978 26.7713 42.727 26.7391 42.7451 26.696C42.983 26.13 42.9225 25.5065 42.691 24.9218C42.4128 24.2191 41.8884 23.5743 41.3655 23.1635C40.7063 22.6458 39.9517 22.3281 39.1459 22.1229C39.0872 22.1079 39.0272 22.0923 38.966 22.0764C38.1413 21.8619 37.1293 21.6168 36.4222 22.1293C36.1382 22.3352 36.0089 22.6268 36.0052 22.924C36.0014 23.2396 36.1415 23.563 36.3938 23.7943C36.8125 24.1782 37.371 24.1863 37.9238 24.1836C38.1002 24.1827 38.2753 24.1817 38.4434 24.1955C39.0215 24.2433 39.6361 24.3198 40.1882 24.5031C41.3106 24.8755 41.9232 25.6236 42.3415 26.6902C42.3586 26.7334 42.3869 26.7665 42.421 26.7895C42.4567 26.8135 42.4989 26.8263 42.5415 26.8271C42.5842 26.8278 42.6269 26.8163 42.6631 26.7933ZM28.8126 25.3444C28.4895 25.7707 28.0498 25.8957 27.6039 26.015C27.3562 26.0816 27.1585 26.135 26.9673 26.2096C26.4417 26.4147 25.9317 26.681 25.4813 27.0216C25.0104 27.3776 24.5021 27.798 24.1649 28.2891C24.0848 28.4059 24.0108 28.527 23.9368 28.6483C23.8694 28.759 23.8043 28.8655 23.7345 28.9693C23.6544 29.0885 23.5798 29.212 23.5057 29.3351C23.4636 29.4359 23.456 29.4603 23.4482 29.4856C23.4366 29.5238 23.4229 29.5665 23.4067 29.6126C23.3847 29.6756 23.3581 29.7451 23.329 29.8088C23.2819 29.9243 23.2524 29.9586 23.2252 29.9761C23.1799 30.005 23.1355 30.0226 23.0899 30.0236C23.0473 30.0245 23.0048 30.0104 22.9608 29.9833C22.7415 29.8484 22.6434 29.5874 22.606 29.3003C22.5493 28.8645 22.6369 28.3594 22.7399 28.0414C22.9795 27.3026 23.3479 26.5165 23.8431 25.9172C24.4082 25.2332 25.0562 24.6821 25.8312 24.2527C26.3129 23.9858 26.8774 23.7223 27.4367 23.6603C27.8393 23.6157 28.2393 23.6769 28.5997 23.9263C28.821 24.0794 28.9532 24.3247 28.9924 24.5839C29.0324 24.8483 28.976 25.1289 28.8126 25.3444ZM41.9345 30.2528C42.1541 30.284 42.2978 30.2318 42.4722 30.1046C42.6064 30.0067 42.6874 29.872 42.7231 29.7237C42.7597 29.5718 42.747 29.4049 42.6952 29.2564C42.4798 28.6398 42.0115 28.1345 41.4396 27.8498C40.8836 27.5732 40.2322 27.5051 39.6214 27.7362C39.1755 27.9049 38.5585 28.4454 38.2794 29.0332C38.1604 29.2838 38.1024 29.5418 38.1285 29.7841C38.1534 30.0151 38.2468 30.2377 38.5969 30.4968C38.6278 30.5016 38.6596 30.5019 38.6903 30.4973C38.7656 30.4859 38.8386 30.4426 38.8833 30.3892C39.0014 30.249 39.0744 30.0829 39.1486 29.905C39.1882 29.8099 39.2274 29.7142 39.2827 29.6268C39.4482 29.3656 39.7095 29.1258 40.0073 29.0287C40.2831 28.9386 40.5509 28.9839 40.777 29.1116C41.0414 29.2609 41.2503 29.5198 41.3575 29.8138C41.4011 29.9329 41.4821 30.034 41.5847 30.1096C41.6882 30.1859 41.8131 30.2355 41.9345 30.2528ZM28.2798 31.2418C27.9766 31.1068 27.6421 31.0952 27.3064 31.3137C27.0441 31.4844 26.6145 31.9861 26.3555 32.5995C26.1783 33.0191 26.0796 33.4949 26.1852 33.959C26.2098 34.0668 26.1816 34.1532 26.1271 34.2222C26.084 34.2767 26.0167 34.3222 25.9332 34.3458C25.8624 34.3659 25.7802 34.3699 25.7113 34.3593C25.5803 34.3391 25.5018 34.268 25.4669 34.2055C25.1295 33.6025 25.1254 32.8733 25.298 32.1888C25.5308 31.2651 26.0822 30.4375 26.48 30.1374C27.1607 29.6238 28.0326 29.4731 28.8369 29.77C29.5215 30.0228 30.0017 30.5252 30.4813 31.0389C30.5833 31.1481 30.6845 31.2565 30.7881 31.3623C30.9959 31.5744 31.0486 31.808 31.0127 32.0205C30.9729 32.2559 30.8136 32.4735 30.5936 32.6081C30.3903 32.7325 30.1402 32.7834 29.903 32.7231C29.7025 32.6721 29.5062 32.5433 29.3571 32.297C29.1059 31.8822 28.7251 31.4402 28.2798 31.2418ZM38.3803 35.1773C39.1099 33.741 37.6148 32.7197 36.6754 32.3268C36.4256 32.199 36.5235 31.6361 37.0177 31.6462C41.5058 31.7367 40.3778 39.6146 34.1677 36.3235C33.4217 35.8875 34.0484 34.5844 34.8345 34.9354C34.8751 34.9579 34.9176 34.9815 34.962 35.0063C35.8613 35.5071 37.5067 36.4235 38.3803 35.1773ZM38.3505 43.2364C37.5479 43.6062 36.6503 43.7641 35.7569 43.6424C34.9465 43.5319 34.0741 43.1511 33.4028 42.5743C32.8065 42.0619 32.3697 41.3957 32.2672 40.6296C32.2554 40.5421 32.2756 40.4645 32.3151 40.4007C32.3576 40.3321 32.4234 40.2794 32.498 40.2496C32.5747 40.2189 32.6598 40.2128 32.7363 40.2344C32.8055 40.2541 32.8686 40.2958 32.9144 40.3636C33.0195 40.4656 33.1241 40.566 33.2286 40.6631C34.0659 41.4278 34.8477 41.9758 35.9441 42.049C36.539 42.0888 37.1055 41.9456 37.6039 41.6725C38.1373 41.3802 38.593 40.939 38.9226 40.4128C39.0716 40.1751 39.2721 40.0569 39.4805 40.0239C39.7169 39.9865 39.9673 40.0611 40.1698 40.2102C40.3691 40.3567 40.5204 40.5738 40.5681 40.8176C40.6099 41.0316 40.5736 41.2673 40.417 41.4964C39.901 42.2507 39.1761 42.8557 38.3505 43.2364Z" fill="black"/>
<path fill-rule="evenodd" clip-rule="evenodd" d="M44.9766 39.7787C45.3402 40.2303 45.6632 40.7191 45.9386 41.2327C46.0681 41.4738 47.167 44.13 46.9745 45.7762C46.7893 47.3609 46.2564 48.9178 45.4978 50.3284C44.8009 51.6237 43.8468 52.757 42.5646 53.4978C40.8916 54.4647 38.7412 54.5889 36.8583 54.6891C34.5065 54.8135 32.1507 54.6422 29.8341 54.2293C28.6754 54.0241 27.5287 53.7588 26.3924 53.4558C25.2757 53.1591 24.0941 52.8791 23.0231 52.4379C22.1022 52.0579 21.2613 51.3683 20.4672 50.7804C19.2159 49.8541 17.9813 48.8776 16.858 47.7969C15.8095 46.7888 14.9946 45.8316 14.5547 44.4224C13.8735 42.2373 13.8374 39.8388 13.803 37.5488C13.8002 37.3636 13.7974 37.1791 13.7943 36.9955C13.7921 36.9189 13.9044 36.8611 13.9411 36.9348C13.9325 36.893 13.9238 36.8512 13.9152 36.8094C13.88 36.6303 14.1392 36.5667 14.2127 36.7223C15.1104 38.6119 16.3601 40.2661 17.9953 41.5764C20.2469 43.3796 22.9394 44.4604 25.569 45.6093C25.6381 45.5212 25.7278 45.4524 25.8283 45.4163C25.9395 43.8022 26.868 42.177 27.854 41.0175C30.7408 37.6254 35.8779 35.5786 40.2595 36.7189C42.1119 37.2019 43.7746 38.2853 44.9766 39.7787ZM32.8948 40.4518C30.6648 41.3827 28.8915 43.2751 28.2957 45.5754C28.2972 46.0575 28.375 46.5338 28.5465 46.9919C30.7226 48.0772 33.2484 48.4386 35.6236 47.7916C36.2356 46.7432 36.8286 45.0236 38.0674 44.6483C38.9843 44.3707 39.7413 44.8881 40.5017 45.4079C40.8923 45.6749 41.2839 45.9426 41.6986 46.1034C41.7666 46.1298 41.8403 46.1543 41.9161 46.1776C42.6287 46.0087 43.3272 45.7307 43.8716 45.227C44.4294 44.711 44.5785 44.1042 44.5878 43.4163C44.5367 43.293 44.4834 43.1708 44.4281 43.0498C44.0388 42.1987 43.5448 41.3856 42.8966 40.7079C42.3515 40.1357 41.673 39.6806 40.8978 39.5027C39.9901 39.2946 39.0041 39.37 38.0818 39.4195C36.3211 39.5129 34.5328 39.7693 32.8948 40.4518Z" fill="black"/>
<path fill-rule="evenodd" clip-rule="evenodd" d="M48.0159 25.0929C48.2905 24.7818 48.8298 24.6365 49.2095 24.5783C50.101 24.6131 49.9419 25.9878 48.1663 25.4159C52.216 35.4186 36.3946 38.2621 37.5845 27.9919C35.922 27.8484 34.2235 28.0729 32.8617 29.028C34.8162 33.3589 31.2442 38.3464 26.2144 37.9643C22.9649 37.7098 20.502 35.5929 20.9321 31.8693C20.3451 32.1556 19.1656 32.1693 18.7354 31.7424C17.4837 31.8236 16.2324 31.8587 14.9825 31.8937C12.1826 31.9721 9.39021 32.0503 6.61833 32.6465C6.24578 32.7567 6.30759 33.0217 6.36936 33.2864C6.43088 33.5501 6.49237 33.8137 6.1244 33.9239C5.24777 33.9757 5.36669 32.4631 5.94989 32.132C6.72452 31.3781 14.2888 30.8671 18.7312 31.342C19.2421 30.8842 20.1138 30.8688 20.8006 30.8566C20.9113 30.8546 21.017 30.8528 21.1157 30.8492C21.6387 28.6134 23.9392 25.5773 26.7127 25.6116C29.2142 25.3815 31.4455 26.0461 32.7147 28.7153C33.83 27.3475 36.1166 26.6148 37.7411 27.2761C38.2869 25.2926 39.5302 23.6748 41.3951 22.7482C43.6175 20.6073 46.8454 22.595 48.0159 25.0929ZM46.9765 31.4799C45.8092 33.1182 43.5621 33.8772 41.606 33.3888C36.5823 32.1286 37.9647 25.6212 41.3591 23.4168C41.7972 23.2346 42.3645 22.8735 42.9098 22.7286C42.9274 22.7164 42.9554 22.7167 42.9901 22.717C43.0471 22.7175 43.1223 22.7181 43.1982 22.6638C47.2844 22.5053 49.1421 28.6048 46.9765 31.4799ZM25.2607 36.9111C27.7618 37.5116 30.5501 36.4409 31.7905 34.1488C34.1128 29.9173 30.3623 23.9042 24.016 27.4492C21.1544 30.0712 20.3283 35.7812 25.2607 36.9111ZM21.0098 31.1145C21.0051 31.1131 21.0006 31.1128 20.9959 31.1114C21.0189 31.0969 21.0418 31.0823 21.0646 31.0676C21.0598 31.0896 21.0543 31.1115 21.0497 31.1336C21.0364 31.1271 21.0243 31.119 21.0098 31.1145Z" fill="black"/>
</svg>
